<svg xmlns="http://www.w3.org/2000/svg" viewBox="0 0 36.3953 13.79733"><defs><style>.cls-1{fill:#2b65b6;}</style></defs><title>logo</title><g id="Layer_2" data-name="Layer 2"><g id="Layer_1-2" data-name="Layer 1"><path class="cls-1" d="M12.89914,11.84977h-.467l.05007-.25377h1.22415l-.04976.25377h-.46821l-.26957,1.42612h-.29192Z"/><path class="cls-1" d="M13.57246,13.27589l.33363-1.771h.29152l-.14193.739h.00466a.51019.51019,0,0,1,.40645-.20978.29371.29371,0,0,1,.30511.327,1.37038,1.37038,0,0,1-.02006.21444l-.135.70034h-.28923l.12953-.68028a1.02,1.02,0,0,0,.01509-.15971.14432.14432,0,0,0-.15236-.165c-.14193,0-.30195.17044-.349.42651l-.10955.57847Z"/><path class="cls-1" d="M15.741,13.27589c.00269-.07251.01272-.16887.02275-.27384H15.7561a.48614.48614,0,0,1-.43354.30164.369.369,0,0,1-.35937-.41348.83163.83163,0,0,1,.85538-.85609,1.24856,1.24856,0,0,1,.36633.05552l-.12416.63242a2.82494,2.82494,0,0,0-.05016.55383Zm.12-1.005a.51369.51369,0,0,0-.12-.0124.55924.55924,0,0,0-.47587.57926c0,.12653.04739.23142.17471.23142.13459,0,.29887-.16966.35669-.479Z"/><path class="cls-1" d="M16.29713,13.27589l.22984-1.21405h.29121l-.23181,1.21405Zm.27731-1.54341a.17241.17241,0,0,1,.17392-.1766.15.15,0,0,1,.155.15733.17266.17266,0,0,1-.17968.17353A.14345.14345,0,0,1,16.57444,11.73248Z"/><path class="cls-1" d="M17.6986,11.62373a1.82748,1.82748,0,0,1,.40455-.04013.67334.67334,0,0,1,.40344.1011.32868.32868,0,0,1,.162.28694.43526.43526,0,0,1-.34863.40645v.00774a.368.368,0,0,1,.26877.36869.47574.47574,0,0,1-.21672.39491,1.01869,1.01869,0,0,1-.59316.13649,2.3209,2.3209,0,0,1-.38955-.02544Zm.0128,1.4254c.04738.00466.09983.00774.15464.00774.21673,0,.41608-.0872.41608-.31167,0-.17969-.152-.24753-.329-.24753h-.13727Zm.1492-.76511h.135c.21634,0,.37415-.1026.37415-.27462,0-.13727-.10726-.19746-.26657-.19746a.77877.77877,0,0,0-.15536.01311Z"/><path class="cls-1" d="M19.71369,13.20646a.98411.98411,0,0,1-.4292.09415.45563.45563,0,0,1-.49869-.50139.73938.73938,0,0,1,.68842-.7651.34756.34756,0,0,1,.39143.34089c0,.31238-.32707.41189-.796.40265a.333.333,0,0,0,.03357.17124.26687.26687,0,0,0,.24911.12566.71385.71385,0,0,0,.33323-.08017Zm-.27692-.9549a.37331.37331,0,0,0-.33662.30858c.29966.00537.49166-.037.49166-.18205C19.59181,12.29784,19.52894,12.25156,19.43677,12.25156Z"/><path class="cls-1" d="M20.32422,12.06184l.07748.60319c.015.145.02931.23679.03507.31625h.00695c.03049-.07717.06517-.16357.1319-.30859l.30195-.61085h.32131L20.524,13.27589h-.29192L20.025,12.06184Z"/><path class="cls-1" d="M22.09667,13.20646a.9757.9757,0,0,1-.42808.09415.45555.45555,0,0,1-.499-.50139.73907.73907,0,0,1,.688-.7651.34839.34839,0,0,1,.39215.34089c0,.31238-.32659.41189-.79559.40265a.33348.33348,0,0,0,.03278.17124.26734.26734,0,0,0,.2484.12566.72132.72132,0,0,0,.33472-.08017Zm-.27612-.9549a.3734.3734,0,0,0-.3367.30858c.29855.00537.49175-.037.49175-.18205C21.9756,12.29784,21.91272,12.25156,21.82055,12.25156Z"/><path class="cls-1" d="M22.33883,13.27589l.14272-.74813c.03239-.172.04668-.35637.06287-.46592h.25109c-.00774.08175-.01508.16658-.0278.25606h.00774a.44823.44823,0,0,1,.3818-.28378.33417.33417,0,0,1,.06208.00616l-.05671.28307a.36264.36264,0,0,0-.05552-.00545c-.2067,0-.33939.20986-.38678.469l-.09217.489Z"/><path class="cls-1" d="M23.97291,13.27589c.0015-.07251.01232-.16887.022-.27384h-.00734a.48612.48612,0,0,1-.43385.30164.369.369,0,0,1-.35906-.41348.83155.83155,0,0,1,.85507-.85609,1.25533,1.25533,0,0,1,.36632.05552l-.12456.63242a2.84987,2.84987,0,0,0-.04936.55383Zm.11918-1.005a.5086.5086,0,0,0-.11918-.0124.55889.55889,0,0,0-.47706.57926c0,.12653.04739.23142.17472.23142.135,0,.29965-.16966.35707-.479Z"/><path class="cls-1" d="M24.56836,13.4934a.73082.73082,0,0,0,.322.071c.189,0,.334-.08878.39373-.37027l.029-.13727h-.00426a.44417.44417,0,0,1-.38141.21443.39356.39356,0,0,1-.38141-.42887.78691.78691,0,0,1,.7952-.80831,1.0889,1.0889,0,0,1,.42193.08483l-.18474,1.00189a.90892.90892,0,0,1-.24911.54151.704.704,0,0,1-.45163.135.76921.76921,0,0,1-.37872-.08254Zm.87734-1.20251a.40694.40694,0,0,0-.15923-.03.50586.50586,0,0,0-.43353.53684c-.00269.12646.04936.24682.19405.24682.14422,0,.28884-.172.332-.39183Z"/><path class="cls-1" d="M26.8275,13.20646a.98283.98283,0,0,1-.42919.09415.45545.45545,0,0,1-.4987-.50139.73926.73926,0,0,1,.6892-.7651.34763.34763,0,0,1,.391.34089c0,.31238-.327.41189-.796.40265a.34388.34388,0,0,0,.03238.17124.26935.26935,0,0,0,.2503.12566.71909.71909,0,0,0,.33362-.08017Zm-.27684-.9549a.37326.37326,0,0,0-.3363.30858c.29847.00537.491-.037.491-.18205C26.70531,12.29784,26.64244,12.25156,26.55066,12.25156Z"/><path class="cls-1" d="M27.8553,11.596h.29081L27.875,13.0214h.661l-.04739.25449h-.95339Z"/><path class="cls-1" d="M29.87189,12.53771a.72734.72734,0,0,1-.703.766.473.473,0,0,1-.49672-.50138.72768.72768,0,0,1,.70152-.76819A.47543.47543,0,0,1,29.87189,12.53771Zm-.8993.25685c0,.16745.08909.28387.23639.28387.21673,0,.36135-.29848.36135-.54072,0-.12416-.05434-.2792-.23252-.2792C29.10639,12.25851,28.97259,12.56781,28.97259,12.79456Z"/><path class="cls-1" d="M30.05434,13.4934a.73243.73243,0,0,0,.32122.071c.1902,0,.33481-.08878.39452-.37027l.0297-.13727H30.7944a.44431.44431,0,0,1-.3818.21443.39277.39277,0,0,1-.38062-.42887.78659.78659,0,0,1,.796-.80831,1.08453,1.08453,0,0,1,.42073.08483l-.18513,1.00189a.91308.91308,0,0,1-.24832.54151.70676.70676,0,0,1-.45242.135.77361.77361,0,0,1-.37872-.08254Zm.87694-1.20251a.39968.39968,0,0,0-.15962-.03.50641.50641,0,0,0-.43346.53684c-.00158.12646.05047.24682.194.24682.14573,0,.29042-.172.33244-.39183Z"/><path class="cls-1" d="M31.36055,13.27589,31.59,12.06184h.292l-.23221,1.21405Zm.27731-1.54341a.17194.17194,0,0,1,.17392-.1766.15035.15035,0,0,1,.15544.15733.17333.17333,0,0,1-.18048.17353A.14273.14273,0,0,1,31.63786,11.73248Z"/><path class="cls-1" d="M32.01153,13.00442a.66534.66534,0,0,0,.292.08175c.11721-.00158.187-.06943.187-.14967,0-.07709-.04013-.12416-.1601-.18664a.37489.37489,0,0,1-.23908-.31625c0-.2345.204-.39949.491-.39949a.59224.59224,0,0,1,.28726.06319l-.0748.20827a.49278.49278,0,0,0-.22716-.054c-.10986,0-.18474.05868-.18474.14193,0,.06635.05561.11421.15773.16665a.39678.39678,0,0,1,.25148.327c0,.26688-.22447.41348-.51638.41348a.64008.64008,0,0,1-.339-.08641Z"/><path class="cls-1" d="M33.59237,11.72711l-.06208.33473h.27455l-.04511.22368h-.27225l-.09684.49214a1.02845,1.02845,0,0,0-.02006.17124.09561.09561,0,0,0,.10766.108.58776.58776,0,0,0,.09944-.00545l-.02812.22676a.63057.63057,0,0,1-.18861.02551c-.19975,0-.29-.10955-.29-.2499a1.037,1.037,0,0,1,.02741-.22676l.10607-.54151h-.16547l.04242-.22368H33.246l.04976-.26222Z"/><path class="cls-1" d="M33.80135,13.27589l.22992-1.21405h.29232L34.091,13.27589Zm.27692-1.54341a.17305.17305,0,0,1,.17471-.1766.15048.15048,0,0,1,.155.15733.17244.17244,0,0,1-.17969.17353A.14385.14385,0,0,1,34.07827,11.73248Z"/><path class="cls-1" d="M35.29081,13.23426a.84009.84009,0,0,1-.34862.06635.45585.45585,0,0,1-.49215-.4829.76842.76842,0,0,1,.77284-.78359.65016.65016,0,0,1,.24683.04778l-.07441.22676a.42959.42959,0,0,0-.18245-.03775.487.487,0,0,0-.4581.51133.25347.25347,0,0,0,.26649.28387.62385.62385,0,0,0,.25993-.05711Z"/><path class="cls-1" d="M35.53724,13.00442a.665.665,0,0,0,.29152.08175c.11769-.00158.18743-.06943.18743-.14967,0-.07709-.04005-.12416-.15923-.18664a.37251.37251,0,0,1-.23947-.31625c0-.2345.20472-.39949.49087-.39949a.59533.59533,0,0,1,.28694.06319l-.07479.20827a.49171.49171,0,0,0-.22716-.054c-.10955,0-.18434.05868-.18434.14193,0,.06635.05513.11421.15694.16665a.39561.39561,0,0,1,.25227.327c0,.26688-.22487.41348-.51639.41348a.63583.63583,0,0,1-.33868-.08641Z"/><path class="cls-1" d="M21.10442,2.513C21.45107.88239,20.40905,0,17.48306,0H.49988L0,2.351H3.16666L1.6152,9.64837H5.67846L7.22881,2.351h3.167L8.84432,9.64837h7.10924c2.08443,0,2.75823-.21515,3.4994-.74892a2.88062,2.88062,0,0,0,1.07677-1.737c.35369-1.65682-.81644-2.31238-2.16388-2.39184l.00616-.027C19.70634,4.43662,20.82592,3.82189,21.10442,2.513Zm-4.47288,4.2623c-.17051.80057-.75475,1.16231-2.15891,1.16231H13.27051l.494-2.32548H14.967C16.37,5.61212,16.80159,5.97307,16.63154,6.77529Zm.47358-3.92915c-.13537.641-.59813,1.05671-1.77363,1.05671h-1.2037L14.57712,1.791h1.18941C17.0353,1.791,17.24974,2.16436,17.10512,2.84614Z"/><path class="cls-1" d="M28.71763,7.29666H24.26751L25.81826,0h-6.395A2.94925,2.94925,0,0,1,21.2702.90017a1.813,1.813,0,0,1,.39065,1.17621,2.96945,2.96945,0,0,1-.06785.60935,2.84169,2.84169,0,0,1-1.81834,2.05789,2.11865,2.11865,0,0,1,.95451.68028,1.87379,1.87379,0,0,1,.37367,1.17163,2.93668,2.93668,0,0,1-.069.61472,3.09332,3.09332,0,0,1-1.16855,1.87513,3.43775,3.43775,0,0,1-1.14272.563h9.49491Z"/></g></g></svg>